<svg id="Layer_1" data-name="Layer 1" xmlns="http://www.w3.org/2000/svg" viewBox="0 0 24 24"><path d="M14.1,9.9A3,3,0,1,1,12,9,3,3,0,0,1,14.1,9.9Z" style="fill:#8a8a8a"/><path d="M19,6.76a2.87,2.87,0,0,0-1.69-1.7A5,5,0,0,0,15.6,4.8H8.4a4.93,4.93,0,0,0-1.66.31A2.89,2.89,0,0,0,5.05,6.74,5.22,5.22,0,0,0,4.8,8.4v7.2a5.24,5.24,0,0,0,.31,1.66A2.88,2.88,0,0,0,6.8,19a5.16,5.16,0,0,0,1.6.31h7.2A4.93,4.93,0,0,0,17.26,19,2.88,2.88,0,0,0,19,17.26a4.93,4.93,0,0,0,.31-1.66V8.4A4.59,4.59,0,0,0,19,6.76ZM12,16.58h0A4.56,4.56,0,0,1,7.43,12h0A4.59,4.59,0,1,1,12,16.58Zm5.75-9.22a1.08,1.08,0,0,1-1,1,1.09,1.09,0,0,1-1-1.19,1.07,1.07,0,0,1,1-1,1.09,1.09,0,0,1,1,1.08S17.76,7.32,17.76,7.36Z" style="fill:#8a8a8a"/><path d="M23.92,6.08a7.89,7.89,0,0,0-.51-2.71A4.82,4.82,0,0,0,20.63.59,7.89,7.89,0,0,0,17.92.08C16.37,0,15.91,0,12,0S7.63,0,6.08.08A7.89,7.89,0,0,0,3.37.59,4.82,4.82,0,0,0,.59,3.37,7.89,7.89,0,0,0,.08,6.08C0,7.63,0,8.09,0,12s0,4.37.08,5.92a8.4,8.4,0,0,0,.51,2.72,4.78,4.78,0,0,0,1.09,1.68,4.68,4.68,0,0,0,1.69,1.09,7.89,7.89,0,0,0,2.71.51C7.63,24,8.09,24,12,24s4.37,0,5.92-.08a7.89,7.89,0,0,0,2.71-.51,4.68,4.68,0,0,0,1.69-1.09,4.78,4.78,0,0,0,1.09-1.68,7.9,7.9,0,0,0,.51-2.72c.08-1.55.08-2,.08-5.92S24,7.63,23.92,6.08Zm-3.05,9.59h0a7,7,0,0,1-.47,2.16,4.6,4.6,0,0,1-2.56,2.56,6.69,6.69,0,0,1-2.17.42H8.33a6.69,6.69,0,0,1-2.17-.42A4.41,4.41,0,0,1,3.6,17.84a6.42,6.42,0,0,1-.41-2.17V8.33A6.42,6.42,0,0,1,3.6,6.16a4.17,4.17,0,0,1,1-1.58,4.32,4.32,0,0,1,1.53-1,6.69,6.69,0,0,1,2.17-.42h7.34a6.69,6.69,0,0,1,2.17.42,4.17,4.17,0,0,1,1.58,1,4.18,4.18,0,0,1,1,1.53,6.69,6.69,0,0,1,.42,2.17V12C20.82,14.47,20.9,14.72,20.87,15.67Z" style="fill:#8a8a8a"/></svg>