<svg id="Layer_1" data-name="Layer 1" xmlns="http://www.w3.org/2000/svg" viewBox="0 0 38.74 38.65"><path d="M32.73,0H6.53A6.27,6.27,0,0,0,.26,6.26V32.39a6.27,6.27,0,0,0,6.27,6.26h26.2A6.27,6.27,0,0,0,39,32.39V6.26A6.27,6.27,0,0,0,32.73,0ZM13.36,32H8.17V15.28h5.19ZM13.76,10a3,3,0,1,1-3-3,3,3,0,0,1,3,3ZM32.76,32H27.58V23.84c0-1.93,0-4.42-2.69-4.42s-3.11,2.11-3.11,4.28V32H16.6V15.28h5v2.28h.07a5.44,5.44,0,0,1,4.9-2.69c5.24,0,6.22,3.45,6.22,7.94Z" transform="translate(-0.26)" style="fill:#8a8a8a"/></svg>